<svg width="14" height="14" viewBox="0 0 14 14" fill="none" xmlns="http://www.w3.org/2000/svg">
<path d="M6.38611 0.927318C6.68541 0.00599813 7.98881 0.00599813 8.28821 0.927318L9.17531 3.6576C9.30921 4.06962 9.69311 4.34859 10.1263 4.34859H12.9971C13.9658 4.34859 14.3686 5.58819 13.5849 6.1576L11.2624 7.84507C10.9119 8.09968 10.7652 8.55108 10.8991 8.96308L11.7862 11.6935C12.0856 12.6148 11.0311 13.3809 10.2474 12.8115L7.92491 11.1241C7.57441 10.8694 7.09981 10.8694 6.74931 11.1241L4.42691 12.8115C3.64321 13.3809 2.58871 12.6148 2.88811 11.6935L3.77521 8.96308C3.90901 8.55108 3.76241 8.09968 3.41191 7.84507L1.08941 6.15759C0.305708 5.58819 0.708507 4.34859 1.67721 4.34859H4.54791C4.98121 4.34859 5.36511 4.06962 5.49901 3.6576L6.38611 0.927318Z" fill="#FFA858"/>
</svg>
