<svg width="15" height="14" viewBox="0 0 15 14" fill="none" xmlns="http://www.w3.org/2000/svg">
<path d="M8.98098 3.83186L8.981 3.83192C9.18797 4.43975 9.75884 4.84853 10.401 4.84853H13.4812C13.9711 4.84853 14.1688 5.48014 13.7662 5.75938C13.7662 5.75939 13.7662 5.75939 13.7662 5.7594L11.3554 7.43131L11.3553 7.43134C10.8051 7.81299 10.5744 8.51317 10.7903 9.14723C10.7903 9.14724 10.7903 9.14724 10.7903 9.14725L11.7298 11.9073C11.8852 12.3639 11.3678 12.7542 10.9715 12.4793L10.9714 12.4793L8.37906 10.6814C8.37902 10.6814 8.37899 10.6814 8.37895 10.6814C7.86482 10.3247 7.18335 10.3247 6.66922 10.6814L4.07687 12.4793L4.07685 12.4793C3.68051 12.7542 3.16314 12.3639 3.31855 11.9073L4.25803 9.14725C4.25804 9.14724 4.25804 9.14724 4.25804 9.14723C4.47389 8.51315 4.24316 7.81294 3.69284 7.43131L1.28216 5.75939L1.28215 5.75938C0.879519 5.48016 1.07704 4.84853 1.56711 4.84853H4.64731C5.28949 4.84853 5.86035 4.43975 6.06733 3.83192L6.06735 3.83186L7.05084 0.942399C7.20464 0.490558 7.84368 0.49055 7.99748 0.9424L8.98098 3.83186Z" stroke="#FFA858"/>
</svg>
